HIERARCHY
ROOT joint_Root
{
	OFFSET 0.0 0.0 0.0
	CHANNELS 6 Xposition Yposition Zposition Zrotation Xrotation Yrotation 
	JOINT Hips
	{
		OFFSET -17.1583 93.1646 452.98
		CHANNELS 6 Xposition Yposition Zposition Zrotation Xrotation Yrotation 
		JOINT Spine
		{
			OFFSET 15.7357 0.0 0.0
			CHANNELS 6 Xposition Yposition Zposition Zrotation Xrotation Yrotation 
			JOINT Chest
			{
				OFFSET 8.98455 -0.406207 0.0
				CHANNELS 6 Xposition Yposition Zposition Zrotation Xrotation Yrotation 
				JOINT Neck
				{
					OFFSET 16.3773 0.0 0.0
					CHANNELS 6 Xposition Yposition Zposition Zrotation Xrotation Yrotation 
					JOINT Head
					{
						OFFSET 6.45672 0.0 0.0
						CHANNELS 6 Xposition Yposition Zposition Zrotation Xrotation Yrotation 
						End Site
						{
							OFFSET 0.0 0.0 0.0
						}
					}
				}
				JOINT Shoulder_L
				{
					OFFSET 12.9942 -0.242716 4.98039
					CHANNELS 6 Xposition Yposition Zposition Zrotation Xrotation Yrotation 
					JOINT UpperArm_L
					{
						OFFSET 5.34809 0.0 0.0
						CHANNELS 6 Xposition Yposition Zposition Zrotation Xrotation Yrotation 
						JOINT LowerArm_L
						{
							OFFSET 24.3286 1.87007e-05 0.0
							CHANNELS 6 Xposition Yposition Zposition Zrotation Xrotation Yrotation 
							JOINT Hand_L
							{
								OFFSET 22.2916 0.0 0.0
								CHANNELS 6 Xposition Yposition Zposition Zrotation Xrotation Yrotation 
								End Site
								{
									OFFSET 0.0 0.0 0.0
								}
							}
						}
					}
				}
				JOINT Shoulder_R
				{
					OFFSET 12.9945 -0.242716 -4.98039
					CHANNELS 6 Xposition Yposition Zposition Zrotation Xrotation Yrotation 
					JOINT UpperArm_R
					{
						OFFSET -5.34813 0.0 0.0
						CHANNELS 6 Xposition Yposition Zposition Zrotation Xrotation Yrotation 
						JOINT LowerArm_R
						{
							OFFSET -24.3289 0.000322201 0.0
							CHANNELS 6 Xposition Yposition Zposition Zrotation Xrotation Yrotation 
							JOINT Hand_R
							{
								OFFSET -22.2915 -0.000108084 0.0
								CHANNELS 6 Xposition Yposition Zposition Zrotation Xrotation Yrotation 
								End Site
								{
									OFFSET 0.0 0.0 0.0
								}
							}
						}
					}
				}
			}
		}
		JOINT UpperLeg_L
		{
			OFFSET -2.19248 -6.46944 0.0
			CHANNELS 6 Xposition Yposition Zposition Zrotation Xrotation Yrotation 
			JOINT LowerLeg_L
			{
				OFFSET 39.0811 0.0 -1.23785e-05
				CHANNELS 6 Xposition Yposition Zposition Zrotation Xrotation Yrotation 
				JOINT Foot_L
				{
					OFFSET 40.9854 0.0 -1.26872e-05
					CHANNELS 6 Xposition Yposition Zposition Zrotation Xrotation Yrotation 
					JOINT Toes_L
					{
						OFFSET 11.7543 0.0 0.0
						CHANNELS 6 Xposition Yposition Zposition Zrotation Xrotation Yrotation 
						End Site
						{
							OFFSET 0.0 0.0 0.0
						}
					}
				}
			}
		}
		JOINT UpperLeg_R
		{
			OFFSET -2.19251 6.46944 0.0
			CHANNELS 6 Xposition Yposition Zposition Zrotation Xrotation Yrotation 
			JOINT LowerLeg_R
			{
				OFFSET -39.0811 -0.00228153 -0.0401928
				CHANNELS 6 Xposition Yposition Zposition Zrotation Xrotation Yrotation 
				JOINT Foot_R
				{
					OFFSET -40.9854 0.0 0.0
					CHANNELS 6 Xposition Yposition Zposition Zrotation Xrotation Yrotation 
					JOINT Toes_R
					{
						OFFSET -11.7543 0.0 0.0
						CHANNELS 6 Xposition Yposition Zposition Zrotation Xrotation Yrotation 
						End Site
						{
							OFFSET 0.0 0.0 0.0
						}
					}
				}
			}
		}
	}
}
MOTION
Frames:	4
Frame Time:	0.0333333
0.000000 0.000000 0.000000 0.000000 0.000000 -0.000000 -2.522800 90.239600 71.644000 -85.631200 7.379970 166.895000 15.735700 0.000005 -0.000001 48.145500 83.387300 -45.334500 8.984550 -0.406207 -0.000000 2.338010 -8.951310 5.808560 16.377300 -0.000001 -0.000001 -4.737880 8.207620 -3.483270 6.456720 -0.000001 -0.000000 5.067260 14.909400 -3.989220 12.994200 -0.242716 4.980390 -91.030600 4.378330 -76.741500 5.348090 -0.000007 -0.000001 -69.033400 1.314010 -0.017517 24.328600 0.000019 0.000005 34.737700 9.735960 -76.281400 22.291600 -0.000001 0.000005 34.114900 5.219390 2.113320 12.994500 -0.242716 -4.980390 90.283200 -1.006590 -74.282900 -5.348130 -0.000001 -0.000004 -45.569500 -23.170100 15.998300 -24.328900 0.000322 -0.000009 -0.044816 -4.181230 -0.600265 -22.291500 -0.000108 -0.000004 56.201100 4.958170 8.205060 -2.192480 -6.469440 -0.000000 -178.465000 -6.798020 7.563120 39.081100 -0.000007 -0.000012 0.160459 -0.118136 53.637200 40.985400 -0.000006 -0.000013 -10.440300 6.550300 -35.511200 11.754300 -0.000000 0.000003 0.002365 0.065184 -13.933000 -2.192510 6.469440 -0.000001 -176.942000 -10.012300 138.103000 -39.081100 -0.002282 -0.040193 -0.080116 0.145084 29.897400 -40.985400 0.000008 0.000006 -11.843200 0.022805 -82.035300 -11.754300 -0.000006 -0.000006 -0.000466 0.175174 -9.467930
0.000000 0.000000 0.000000 0.000000 0.000000 -0.000000 -2.403500 87.493100 60.700500 -84.999300 8.733750 166.255000 15.735700 0.000005 -0.000001 56.821600 84.373100 -53.760500 8.984550 -0.406207 -0.000000 1.840490 -6.313160 6.222920 16.377300 -0.000001 -0.000001 -5.118830 7.947740 -3.970140 6.456720 -0.000001 -0.000000 4.054080 13.519600 -4.957730 12.994200 -0.242716 4.980390 -91.530400 5.990440 -75.642900 5.348090 -0.000007 -0.000001 -68.987100 1.889130 1.670520 24.328600 0.000019 0.000005 29.643000 15.577200 -64.740600 22.291600 -0.000001 0.000005 8.346340 5.210860 2.514480 12.994500 -0.242716 -4.980390 90.050600 -0.186116 -74.800000 -5.348130 -0.000001 -0.000004 -49.142200 -21.030100 11.863000 -24.328900 0.000322 -0.000009 -0.000989 -5.306400 -0.000035 -22.291500 -0.000108 -0.000004 48.219700 4.894850 9.495030 -2.192480 -6.469440 -0.000000 -176.988000 -10.328700 -1.355350 39.081100 -0.000007 -0.000012 0.509292 -0.142586 74.359100 40.985400 -0.000006 -0.000013 -9.895200 3.012770 -35.900600 11.754300 -0.000000 0.000003 0.002290 0.060176 -14.136000 -2.192510 6.469440 -0.000001 -174.086000 -9.163190 134.797000 -39.081100 -0.002282 -0.040193 0.287288 -0.349449 39.102200 -40.985400 0.000008 0.000006 -1.200030 -6.485490 -70.508700 -11.754300 -0.000006 -0.000006 0.001167 0.144934 -10.695600
0.000000 0.000000 0.000000 0.000000 0.000000 -0.000000 -2.037100 84.134500 49.999600 -84.307900 8.464950 168.307000 15.735700 0.000005 -0.000001 74.044300 84.205400 -70.850500 8.984550 -0.406207 -0.000000 3.481640 -3.301190 6.482560 16.377300 -0.000001 -0.000001 -5.711480 7.020870 -4.287600 6.456720 -0.000001 -0.000000 2.078080 10.973500 -5.124200 12.994200 -0.242716 4.980390 -92.130400 7.917060 -74.888300 5.348090 -0.000007 -0.000001 -67.408300 1.550230 3.038400 24.328600 0.000019 0.000005 26.250500 23.458600 -51.095900 22.291600 -0.000001 0.000005 -6.681040 5.152760 3.881970 12.994500 -0.242716 -4.980390 89.689800 1.190750 -75.394100 -5.348130 -0.000001 -0.000004 -52.628400 -19.041700 7.866940 -24.328900 0.000322 -0.000009 -0.061454 -6.421440 -0.537939 -22.291500 -0.000108 -0.000004 30.718500 4.836390 10.630400 -2.192480 -6.469440 -0.000000 -173.895000 -12.005700 -10.511700 39.081100 -0.000007 -0.000012 0.970813 0.083496 94.914600 40.985400 -0.000006 -0.000013 -11.178800 -4.032090 -37.282500 11.754300 -0.000000 0.000003 0.002184 0.054531 -14.364900 -2.192510 6.469440 -0.000001 -171.911000 -5.620600 135.550000 -39.081100 -0.002282 -0.040193 0.264063 -0.181049 55.235500 -40.985400 0.000008 0.000006 0.027662 -2.882360 -77.848400 -11.754300 -0.000006 -0.000006 -0.008708 0.261386 -5.956490
0.000000 0.000000 0.000000 0.000000 0.000000 -0.000000 -1.303910 82.284400 40.159300 -81.734000 8.028070 168.996000 15.735700 0.000005 -0.000001 89.017200 83.360100 -84.968700 8.984550 -0.406207 -0.000000 5.535590 -0.305559 8.102670 16.377300 -0.000001 -0.000001 -7.977760 7.137590 -4.131450 6.456720 -0.000001 -0.000000 0.650911 8.612760 -6.472300 12.994200 -0.242716 4.980390 -92.773900 9.309470 -73.326200 5.348090 -0.000007 -0.000001 -66.005500 -1.426450 4.467150 24.328600 0.000019 0.000005 21.618700 33.421800 -35.744100 22.291600 -0.000001 0.000005 -2.068060 5.124860 4.488910 12.994500 -0.242716 -4.980390 89.365500 2.554320 -76.045100 -5.348130 -0.000001 -0.000004 -56.706600 -10.782600 1.797740 -24.328900 0.000322 -0.000009 -0.639946 -4.928110 -7.438150 -22.291500 -0.000108 -0.000004 6.444250 4.918240 8.860430 -2.192480 -6.469440 -0.000000 -170.274000 -11.900800 -25.203500 39.081100 -0.000007 -0.000012 1.039620 0.397017 110.898000 40.985400 -0.000006 -0.000013 -8.531420 -2.692230 -35.456100 11.754300 -0.000000 0.000003 0.002157 0.053239 -14.417300 -2.192510 6.469440 -0.000001 -169.629000 -5.854140 141.303000 -39.081100 -0.002282 -0.040193 -0.023137 0.014514 61.135700 -40.985400 0.000008 0.000006 -3.664470 -1.975000 -86.467700 -11.754300 -0.000006 -0.000006 -0.005464 0.233556 -7.092360
